HIERARCHY
ROOT root
{
	OFFSET	0	13.1	24.9
	CHANNELS 6  Xposition Yposition Zposition Xrotation Yrotation Zrotation
	JOINT spine_1
	{
		OFFSET	0	9.99999	0
		CHANNELS 3  Xrotation Yrotation Zrotation
		JOINT spine_2
		{
			OFFSET	0	112	-10
			CHANNELS 3  Xrotation Yrotation Zrotation
			JOINT spine_3
			{
				OFFSET	0	206.5	19.3
				CHANNELS 3  Xrotation Yrotation Zrotation
				JOINT spine_4
				{
					OFFSET	0	110.4	14.6
					CHANNELS 3  Xrotation Yrotation Zrotation
					JOINT neck_1
					{
						OFFSET	0	71.8	-50.3
						CHANNELS 3  Xrotation Yrotation Zrotation
						JOINT neck_2
						{
							OFFSET	0	86.2	-25.8
							CHANNELS 3  Xrotation Yrotation Zrotation
							JOINT head_ee
							{
								OFFSET	0	179.8	-8.7
								CHANNELS 3  Xrotation Yrotation Zrotation
								End Site
								{
									OFFSET	1	0	0
								}
							}
						}
					}
					JOINT left_clavicle
					{
						OFFSET	-43.2	22.4	-70.8
						CHANNELS 3  Xrotation Yrotation Zrotation
						JOINT left_shoulder
						{
							OFFSET	-93.9	-5.79999	48.7
							CHANNELS 3  Xrotation Yrotation Zrotation
							JOINT left_elbow
							{
								OFFSET	-291.4	-30.8	15.2
								CHANNELS 3  Xrotation Yrotation Zrotation
								JOINT left_lowarm_twist
								{
									OFFSET	-110.7	-3.89999	13.6
									CHANNELS 3  Xrotation Yrotation Zrotation
									JOINT left_hand
									{
										OFFSET	-110.7	-3.89999	13.6
										CHANNELS 3  Xrotation Yrotation Zrotation
										JOINT left_ee
										{
											OFFSET	-80.8	-5.10001	12.1
											CHANNELS 3  Xrotation Yrotation Zrotation
											End Site
											{
												OFFSET	1	0	0
											}
										}
									}
								}
							}
						}
					}
					JOINT right_clavicle
					{
						OFFSET	43.2	22.4	-70.8
						CHANNELS 3  Xrotation Yrotation Zrotation
						JOINT right_shoulder
						{
							OFFSET	93.9	-5.79999	48.7
							CHANNELS 3  Xrotation Yrotation Zrotation
							JOINT right_elbow
							{
								OFFSET	291.4	-30.8	15.2
								CHANNELS 3  Xrotation Yrotation Zrotation
								JOINT right_lowarm_twist
								{
									OFFSET	110.7	-3.89999	13.6
									CHANNELS 3  Xrotation Yrotation Zrotation
									JOINT right_hand
									{
										OFFSET	110.7	-3.89999	13.6
										CHANNELS 3  Xrotation Yrotation Zrotation
										JOINT right_ee
										{
											OFFSET	80.8	-5.10001	12.1
											CHANNELS 3  Xrotation Yrotation Zrotation
											End Site
											{
												OFFSET	1	0	0
											}
										}
									}
								}
							}
						}
					}
				}
			}
		}
	}
	JOINT left_hip
	{
		OFFSET	-82.8	-127.5	0.300001
		CHANNELS 3  Xrotation Yrotation Zrotation
		JOINT left_knee
		{
			OFFSET	-28.2	-396.7	2.2
			CHANNELS 3  Xrotation Yrotation Zrotation
			JOINT left_ankle
			{
				OFFSET	-11.7	-411.3	35.4
				CHANNELS 3  Xrotation Yrotation Zrotation
				JOINT left_toes
				{
					OFFSET	0	-60	-88.6
					CHANNELS 3  Xrotation Yrotation Zrotation
					JOINT left_foot_ee
					{
						OFFSET	-22.5	-16.5	-42.2
						CHANNELS 3  Xrotation Yrotation Zrotation
						End Site
						{
							OFFSET	1	0	0
						}
					}
				}
			}
		}
	}
	JOINT right_hip
	{
		OFFSET	82.8	-127.5	0.300001
		CHANNELS 3  Xrotation Yrotation Zrotation
		JOINT right_knee
		{
			OFFSET	28.2	-396.7	2.2
			CHANNELS 3  Xrotation Yrotation Zrotation
			JOINT right_ankle
			{
				OFFSET	11.7	-411.3	35.4
				CHANNELS 3  Xrotation Yrotation Zrotation
				JOINT right_toes
				{
					OFFSET	0	-60	-88.6
					CHANNELS 3  Xrotation Yrotation Zrotation
					JOINT right_foot_ee
					{
						OFFSET	22.5	-16.5	-42.2
						CHANNELS 3  Xrotation Yrotation Zrotation
						End Site
						{
							OFFSET	1	0	0
						}
					}
				}
			}
		}
	}
}
MOTION
Frames: 10
Frame Time: 0.02
3177.02 653.055 -1669.29 -14.8942131232 18.1295747162 3.41724482589 4.50035 0.443396 1.67987 4.50186 0.335618 1.70467 4.51075 0.106637 1.73411 4.50675 0.37913 1.69553 -4.29397 18.3381 4.84251 -3.99781 30.0363 7.9066 -0.0 0.0 -0.0 -4.82058 13.314 -6.42133 -24.1018 -41.4687 77.8768 0.570686 -15.7858 0.079118 1.12187 0.038175 -0.138195 0.567779 14.8237 9.63126 -0.0 0.0 -0.0 11.0114 12.9115 -22.0206 -1.82324 24.7294 -59.9925 2.21276 47.6197 -0.976496 -22.6882 1.32501 -2.56166 -0.33017 8.68746 5.9286 0.0 0.0 0.0 40.3873 3.34783 -8.70994 1.80467 -0.0785107 -0.265784 1.6774 -1.79172 -0.248335 -10.3964 0.0 0.0 -0.0 0.0 -0.0 2.42448 13.4326 6.13835 -19.3726 -0.302576 -2.94334 39.4374 13.9494 5.08294 -10.1701 0.0 0.0 0.0 0.0 0.0 
3152.31666707 652.955 -1687.9254539 -14.7719451446 17.424901058 3.33171166437 4.49226 0.463408 1.70017 4.4938 0.3543 1.7262 4.50336 0.122081 1.75794 4.49927 0.398142 1.71662 -3.70358 18.6786 4.92961 -3.3415 30.4465 7.90596 -0.0 0.0 -0.0 -4.46751 13.5595 -5.77127 -24.0464 -41.3548 77.49 0.556948 -15.4241 0.0754224 0.908554 0.0311248 -0.111863 0.427943 14.8113 8.74626 -0.0 0.0 -0.0 11.0111 13.0302 -22.017 -3.67339 24.3191 -59.7822 2.07298 45.7547 -0.874776 -23.5467 1.3944 -2.64701 -0.298367 7.81144 5.33761 0.0 0.0 0.0 40.9505 2.99274 -8.90346 -4.05286 0.145523 0.604838 3.13184 -2.36735 -0.462641 -9.36992 0.0 0.0 -0.0 0.0 -0.0 2.52872 13.5977 6.65287 -21.4456 -0.275658 -3.26027 39.127 8.73757 4.92259 -8.50659 0.0 0.0 0.0 0.0 0.0 
3129.76633113 662.06 -1708.47364045 -14.6991176001 17.963517312 3.02379013851 4.29954 0.369889 1.56734 4.30086 0.269418 1.5877 4.30745 0.05079 1.60959 4.30396 0.304325 1.58138 -3.97048 18.9815 4.97992 -3.61993 31.0399 8.06617 -0.0 0.0 -0.0 -4.58719 12.7403 -6.16202 -22.9698 -41.3686 77.0988 0.709078 -19.3542 0.120915 0.898994 0.0308066 -0.110683 0.450007 13.9644 8.56556 -0.0 0.0 -0.0 10.9171 12.8735 -21.8103 -4.76368 23.966 -59.9571 1.83384 42.2489 -0.708571 -23.5433 1.39412 -2.64667 -0.160405 8.96747 4.8971 0.0 0.0 0.0 40.9453 2.99351 -8.9172 -9.74049 0.276867 1.46742 0.174516 0.109151 -0.0257984 -9.07113 0.0 0.0 -0.0 0.0 -0.0 1.34888 15.0664 7.69868 -23.5904 -0.235758 -3.58695 36.0337 2.72915 4.54358 -8.46625 0.0 0.0 0.0 0.0 0.0 
3129.56616609 662.06 -1708.23098801 -14.7234951101 18.2474897872 3.1022327482 4.29954 0.369889 1.56734 4.30086 0.269418 1.5877 4.30745 0.05079 1.60959 4.30396 0.304325 1.58138 -3.97048 18.9815 4.97992 -3.61993 31.0399 8.06617 -0.0 0.0 -0.0 -4.58719 12.7403 -6.16202 -22.9698 -41.3686 77.0988 0.709078 -19.3542 0.120915 0.898994 0.0308066 -0.110683 0.450007 13.9644 8.56556 -0.0 0.0 -0.0 10.9171 12.8735 -21.8103 -4.76368 23.966 -59.9571 1.83384 42.2489 -0.708571 -23.5433 1.39412 -2.64667 -0.160405 8.96747 4.8971 0.0 0.0 0.0 40.9453 2.99351 -8.9172 -9.74049 0.276867 1.46742 0.174516 0.109151 -0.0257984 -9.07113 0.0 0.0 -0.0 0.0 -0.0 1.34888 15.0664 7.69868 -23.5904 -0.235758 -3.58695 36.0337 2.72915 4.54358 -8.46625 0.0 0.0 0.0 0.0 0.0 
3078.70652649 668.697 -1776.11097091 -11.8832912975 15.4387066848 2.7934036406 3.52344 0.256056 1.45531 3.5246 0.162943 1.46865 3.52826 -0.0586125 1.47649 3.52526 0.175282 1.46722 -3.71202 19.478 4.68378 -3.314 32.1158 7.77076 -0.0 0.0 -0.0 -4.91165 11.4495 -7.02153 -21.9274 -40.8811 74.652 0.945367 -25.0936 0.210398 -0.088307 -0.00311971 0.0108463 0.213587 12.7569 6.60398 -0.0 0.0 -0.0 10.7463 12.8546 -21.4289 -7.52145 22.7521 -62.9619 1.28069 32.3903 -0.371972 -24.217 1.44947 -2.71292 0.117711 10.4135 3.63234 0.0 0.0 0.0 39.473 3.19876 -7.90568 -18.6746 0.309057 2.83644 -4.33628 6.20762 0.641064 -9.03789 0.0 0.0 -0.0 0.0 -0.0 0.352828 17.4562 7.22018 -29.0309 -0.0799645 -4.40705 30.6368 -9.01196 3.96096 -8.91121 0.0 0.0 0.0 0.0 0.0 
3056.04384885 664.306 -1801.90907575 -11.1545918264 16.006842322 2.09176131972 3.32232 0.205536 1.56418 3.32367 0.105599 1.57409 3.32604 -0.136661 1.5717 3.32261 0.113243 1.57356 -1.40179 20.1873 3.06353 -0.676056 34.053 5.55299 -0.0 0.0 -0.0 -4.32517 11.2912 -6.04255 -20.9921 -40.5169 72.5174 0.920152 -24.5039 0.199822 -2.18524 -0.0821027 0.266949 -0.220063 13.4106 4.12777 -0.0 0.0 -0.0 10.4665 12.9479 -20.8032 -10.7361 21.8632 -63.4394 1.13272 29.2966 -0.29608 -24.4747 1.47084 -2.73809 0.156452 12.606 4.30763 0.0 0.0 0.0 37.7438 4.61805 -7.96969 -23.9693 0.227438 3.6445 2.73785 8.22934 -0.397905 -11.1406 0.0 0.0 -0.0 0.0 -0.0 0.976061 18.1051 6.40267 -34.1715 0.13818 -5.16546 34.5846 -15.2741 4.42006 -10.2002 0.0 0.0 0.0 0.0 0.0 
3056.35404007 664.306 -1802.19137138 -11.1471968493 15.8754994069 2.06483626564 3.32232 0.205536 1.56418 3.32367 0.105599 1.57409 3.32604 -0.136661 1.5717 3.32261 0.113243 1.57356 -1.40179 20.1873 3.06353 -0.676056 34.053 5.55299 -0.0 0.0 -0.0 -4.32517 11.2912 -6.04255 -20.9921 -40.5169 72.5174 0.920152 -24.5039 0.199822 -2.18524 -0.0821027 0.266949 -0.220063 13.4106 4.12777 -0.0 0.0 -0.0 10.4665 12.9479 -20.8032 -10.7361 21.8632 -63.4394 1.13272 29.2966 -0.29608 -24.4747 1.47084 -2.73809 0.156452 12.606 4.30763 0.0 0.0 0.0 37.7438 4.61805 -7.96969 -23.9693 0.227438 3.6445 2.73785 8.22934 -0.397905 -11.1406 0.0 0.0 -0.0 0.0 -0.0 0.976061 18.1051 6.40267 -34.1715 0.13818 -5.16546 34.5846 -15.2741 4.42006 -10.2002 0.0 0.0 0.0 0.0 0.0 
3057.02088345 664.306 -1802.79378432 -11.1315838778 15.5940678151 2.00726327042 3.32232 0.205536 1.56418 3.32367 0.105599 1.57409 3.32604 -0.136661 1.5717 3.32261 0.113243 1.57356 -1.40179 20.1873 3.06353 -0.676056 34.053 5.55299 -0.0 0.0 -0.0 -4.32517 11.2912 -6.04255 -20.9921 -40.5169 72.5174 0.920152 -24.5039 0.199822 -2.18524 -0.0821027 0.266949 -0.220063 13.4106 4.12777 -0.0 0.0 -0.0 10.4665 12.9479 -20.8032 -10.7361 21.8632 -63.4394 1.13272 29.2966 -0.29608 -24.4747 1.47084 -2.73809 0.156452 12.606 4.30763 0.0 0.0 0.0 37.7438 4.61805 -7.96969 -23.9693 0.227438 3.6445 2.73785 8.22934 -0.397905 -11.1406 0.0 0.0 -0.0 0.0 -0.0 0.976061 18.1051 6.40267 -34.1715 0.13818 -5.16546 34.5846 -15.2741 4.42006 -10.2002 0.0 0.0 0.0 0.0 0.0 
3057.09005931 664.306 -1802.85593026 -11.1299862571 15.5649448712 2.00131476853 3.32232 0.205536 1.56418 3.32367 0.105599 1.57409 3.32604 -0.136661 1.5717 3.32261 0.113243 1.57356 -1.40179 20.1873 3.06353 -0.676056 34.053 5.55299 -0.0 0.0 -0.0 -4.32517 11.2912 -6.04255 -20.9921 -40.5169 72.5174 0.920152 -24.5039 0.199822 -2.18524 -0.0821027 0.266949 -0.220063 13.4106 4.12777 -0.0 0.0 -0.0 10.4665 12.9479 -20.8032 -10.7361 21.8632 -63.4394 1.13272 29.2966 -0.29608 -24.4747 1.47084 -2.73809 0.156452 12.606 4.30763 0.0 0.0 0.0 37.7438 4.61805 -7.96969 -23.9693 0.227438 3.6445 2.73785 8.22934 -0.397905 -11.1406 0.0 0.0 -0.0 0.0 -0.0 0.976061 18.1051 6.40267 -34.1715 0.13818 -5.16546 34.5846 -15.2741 4.42006 -10.2002 0.0 0.0 0.0 0.0 0.0 
3035.37001465 674.406 -1823.85240309 -8.92637292264 16.0324821862 1.09201130509 2.82794 0.294994 1.77978 2.82969 0.181163 1.79494 2.83493 -0.111223 1.80062 2.83045 0.174501 1.7956 0.294913 20.5792 1.94462 1.31473 35.1924 3.90822 -0.0 0.0 -0.0 -4.00903 11.2056 -5.51514 -20.4894 -40.2264 70.8792 0.89956 -24.0182 0.19136 -3.8224 -0.150262 0.46482 -0.529997 13.881 2.37988 -0.0 0.0 -0.0 10.2557 13.0082 -20.3333 -13.1482 20.9497 -64.2667 1.01932 26.7904 -0.242751 -24.6341 1.48412 -2.75361 0.151149 13.6245 4.77891 0.0 0.0 0.0 35.8998 5.76409 -7.62093 -27.8535 0.120279 4.23085 7.99141 10.1553 -1.14437 -12.637 0.0 0.0 -0.0 0.0 -0.0 1.77887 18.5915 5.35086 -37.7598 0.330435 -5.68211 37.3281 -19.9163 4.77226 -11.3112 0.0 0.0 0.0 0.0 0.0 
